{
  "accessors": [
    {
      "bufferView": 2,
      "componentType": 5126,
      "count": 224,
      "max": [
        0.91167902946472168,
        -7.7852668762207031,
        10.305459022521973
      ],
      "min": [
        -0.8983839750289917,
        -19.365446090698242,
        8.4953956604003906
      ],
      "type": "VEC3"
    },
    {
      "bufferView": 2,
      "byteOffset": 2688,
      "componentType": 5126,
      "count": 224,
      "max": [
        0.92387664318084717,
        0.83215385675430298,
        0.92387664318084717
      ],
      "min": [
        -0.92387664318084717,
        -0.95749211311340332,
        -0.92387664318084717
      ],
      "type": "VEC3"
    },
    {
      "bufferView": 1,
      "componentType": 5126,
      "count": 224,
      "max": [
        0,
        0
      ],
      "min": [
        0,
        0
      ],
      "type": "VEC2"
    },
    {
      "bufferView": 0,
      "componentType": 5125,
      "count": 336,
      "max": [
        223
      ],
      "min": [
        0
      ],
      "type": "SCALAR"
    },
    {
      "bufferView": 2,
      "byteOffset": 5376,
      "componentType": 5126,
      "count": 1353,
      "max": [
        1.0866349935531616,
        6.8823971748352051,
        10.651270866394043
      ],
      "min": [
        -1.0866349935531616,
        -7.7804450988769531,
        2.0856270790100098
      ],
      "type": "VEC3"
    },
    {
      "bufferView": 2,
      "byteOffset": 21612,
      "componentType": 5126,
      "count": 1353,
      "max": [
        1,
        1,
        1
      ],
      "min": [
        -1,
        -1,
        -0.99999821186065674
      ],
      "type": "VEC3"
    },
    {
      "bufferView": 1,
      "byteOffset": 1792,
      "componentType": 5126,
      "count": 1353,
      "max": [
        0.75,
        0.875
      ],
      "min": [
        0,
        0
      ],
      "type": "VEC2"
    },
    {
      "bufferView": 0,
      "byteOffset": 1344,
      "componentType": 5125,
      "count": 2886,
      "max": [
        1352
      ],
      "min": [
        0
      ],
      "type": "SCALAR"
    },
    {
      "bufferView": 2,
      "byteOffset": 37848,
      "componentType": 5126,
      "count": 1860,
      "max": [
        1.0023859739303589,
        7.3505969047546387,
        10.242785453796387
      ],
      "min": [
        -1.0023859739303589,
        -7.971764087677002,
        0.00027799999224953353
      ],
      "type": "VEC3"
    },
    {
      "bufferView": 2,
      "byteOffset": 60168,
      "componentType": 5126,
      "count": 1860,
      "max": [
        1,
        1,
        0.99999582767486572
      ],
      "min": [
        -1,
        -1,
        -1
      ],
      "type": "VEC3"
    },
    {
      "bufferView": 1,
      "byteOffset": 12616,
      "componentType": 5126,
      "count": 1860,
      "max": [
        0.75,
        0.875
      ],
      "min": [
        0,
        0
      ],
      "type": "VEC2"
    },
    {
      "bufferView": 0,
      "byteOffset": 12888,
      "componentType": 5125,
      "count": 3942,
      "max": [
        1859
      ],
      "min": [
        0
      ],
      "type": "SCALAR"
    }
  ],
  "asset": {
    "extras": {
      "author": "Jose Manuel (https://sketchfab.com/manre)",
      "license": "CC-BY-NC-ND-4.0 (http://creativecommons.org/licenses/by-nc-nd/4.0/)",
      "source": "https://sketchfab.com/3d-models/low-poly-gun-3131da8752274c0ab1f0f61615364b91",
      "title": "Low poly gun"
    },
    "generator": "Sketchfab-9.67.0",
    "version": "2.0"
  },
  "bufferViews": [
    {
      "buffer": 0,
      "byteLength": 28656,
      "byteOffset": 0,
      "name": "floatBufferViews",
      "target": 34963
    },
    {
      "buffer": 0,
      "byteLength": 27496,
      "byteOffset": 28656,
      "byteStride": 8,
      "name": "floatBufferViews",
      "target": 34962
    },
    {
      "buffer": 0,
      "byteLength": 82488,
      "byteOffset": 56152,
      "byteStride": 12,
      "name": "floatBufferViews",
      "target": 34962
    }
  ],
  "buffers": [
    {
      "byteLength": 138640,
      "uri": "scene.bin"
    }
  ],
  "materials": [
    {
      "doubleSided": true,
      "emissiveFactor": [
        0,
        0,
        0
      ],
      "name": "Gris",
      "pbrMetallicRoughness": {
        "baseColorFactor": [
          0.087139999999999995,
          0.087139999999999995,
          0.087139999999999995,
          1
        ],
        "metallicFactor": 0,
        "roughnessFactor": 1
      }
    },
    {
      "doubleSided": true,
      "emissiveFactor": [
        0,
        0,
        0
      ],
      "name": "Negro",
      "pbrMetallicRoughness": {
        "baseColorFactor": [
          0.0048960000000000002,
          0.0048960000000000002,
          0.0048960000000000002,
          1
        ],
        "metallicFactor": 0,
        "roughnessFactor": 1
      }
    },
    {
      "doubleSided": true,
      "emissiveFactor": [
        0,
        0,
        0
      ],
      "name": "Negro_Silenciador",
      "pbrMetallicRoughness": {
        "baseColorFactor": [
          0.0048960000000000002,
          0.0048960000000000002,
          0.0048960000000000002,
          1
        ],
        "metallicFactor": 0,
        "roughnessFactor": 0.85406204325413282
      }
    }
  ],
  "meshes": [
    {
      "primitives": [
        {
          "attributes": {
            "NORMAL": 1,
            "POSITION": 0,
            "TEXCOORD_0": 2
          },
          "indices": 3,
          "material": 2,
          "mode": 4
        }
      ]
    },
    {
      "primitives": [
        {
          "attributes": {
            "NORMAL": 5,
            "POSITION": 4,
            "TEXCOORD_0": 6
          },
          "indices": 7,
          "material": 0,
          "mode": 4
        }
      ]
    },
    {
      "primitives": [
        {
          "attributes": {
            "NORMAL": 9,
            "POSITION": 8,
            "TEXCOORD_0": 10
          },
          "indices": 11,
          "material": 1,
          "mode": 4
        }
      ]
    }
  ],
  "nodes": [
    {
      "children": [
        1
      ],
      "name": "RootNode (gltf orientation matrix)",
      "rotation": [
        -0.70710678118654746,
        -0,
        -0,
        0.70710678118654757
      ]
    },
    {
      "children": [
        2
      ],
      "matrix": [
        0.11638577282428741,
        0,
        0,
        0,
        0,
        0.11638577282428741,
        1.8716259426915547e-17,
        0,
        0,
        -1.8716259426915547e-17,
        0.11638577282428741,
        0,
        0,
        8.8817841970012523e-16,
        8.8817841970012523e-16,
        1
      ],
      "name": "RootNode (model correction matrix)"
    },
    {
      "children": [
        3,
        4,
        5
      ],
      "name": "pistola.obj.cleaner.materialmerger.gles"
    },
    {
      "mesh": 0,
      "name": ""
    },
    {
      "mesh": 1,
      "name": ""
    },
    {
      "mesh": 2,
      "name": ""
    }
  ],
  "scene": 0,
  "scenes": [
    {
      "name": "OSG_Scene",
      "nodes": [
        0
      ]
    }
  ]
}

